<?xml version="1.0" encoding="utf-8"?>
<!-- Generator: Adobe Illustrator 22.0.1, SVG Export Plug-In . SVG Version: 6.00 Build 0)  -->
<svg version="1.1" id="Calque_1" xmlns="http://www.w3.org/2000/svg" xmlns:xlink="http://www.w3.org/1999/xlink" x="0px" y="0px"
	 viewBox="0 0 83 83" style="enable-background:new 0 0 83 83;" xml:space="preserve">
<style type="text/css">
	.st0{fill:#2393D8;}
	.st1{fill:#00D0A6;}
</style>
<title>Fichier 1</title>
<g id="Calque_2_1_">
	<g id="Calque_1-2">
		<path class="st0" d="M40.7,26.6l-12,3.9c-0.4,0.1-0.7,0.5-0.7,1v5.6c0.1,5.8,2.9,11.1,7.5,14.6l5.4,3.5c0.2,0.1,0.4,0.2,0.6,0.2
			c0.2,0,0.4-0.1,0.6-0.2l5-3.6c4.4-3.5,7-8.9,6.9-14.6v-5.6c0-0.5-0.3-0.9-0.7-1l-12-3.9C41.1,26.5,40.9,26.5,40.7,26.6z M52,37.1
			c0.1,5-2.2,9.8-6.1,13l-4.5,3.2l-4.8-3.1c-4.1-3.1-6.5-7.9-6.6-13v-4.9l11-3.6l11,3.6V37.1z"/>
		<polygon class="st0" points="37.8,38.9 36,40.7 40.9,45.5 42.6,43.8 48.2,38.2 46.4,36.5 40.9,42 		"/>
		<path class="st1" d="M5,28v11.6c0,2.8,2.6,4.4,5,4.4h3c0.6,0,1-0.4,1-1s-0.4-1-1-1h-3c-1.5,0-3-0.9-3-2.4V28h9v7c0,0.6,0.4,1,1,1
			s1-0.4,1-1v-7h4.7c2.8,0,5.2-2.2,5.3-5h12.2c2.4,0,3.8-1.8,3.8-4.7V15c0-0.6-0.4-1-1-1s-1,0.4-1,1v3.3c0,2.7-1.3,2.7-1.8,2.7H28
			v-9h7c0.6,0,1-0.4,1-1s-0.4-1-1-1h-7V5.3C28,2.4,25.6,0,22.7,0H5.3C2.4,0,0,2.4,0,5.3v17.4C0,25.5,2.2,27.8,5,28z M2,5.3
			C2,3.5,3.5,2,5.3,2h17.4C24.5,2,26,3.5,26,5.3v17.4c0,1.8-1.5,3.3-3.3,3.3H5.3C3.5,26,2,24.5,2,22.7V5.3z"/>
		<path class="st1" d="M77.7,0H60.3c-2.8,0-5.2,2.2-5.3,5H43.2C40.7,5,38,6.6,38,9.3V13c0,0.6,0.4,1,1,1s1-0.4,1-1V9.3
			C40,7.9,41.7,7,43.2,7H55v9h-8c-0.6,0-1,0.4-1,1s0.4,1,1,1h8v4.7c0,2.4,1.6,4.5,4,5.1v11.9c0,2.7,2.8,4.3,5.4,4.3H67
			c0.6,0,1-0.4,1-1s-0.4-1-1-1h-2.6c-1.6,0-3.4-0.9-3.4-2.3V28h9v7c0,0.6,0.4,1,1,1s1-0.4,1-1v-7h5.7c2.9,0,5.3-2.4,5.3-5.3V5.3
			C83,2.4,80.6,0,77.7,0z M81,22.7c0,1.8-1.5,3.3-3.3,3.3H60.3c-1.8,0-3.3-1.5-3.3-3.3V5.3C57,3.5,58.5,2,60.3,2h17.4
			C79.5,2,81,3.5,81,5.3V22.7z"/>
		<path class="st1" d="M78,55L78,55V42.7c0.1-2.6-2-4.7-4.5-4.7c0,0,0,0,0,0H69c-0.6,0-1,0.4-1,1s0.4,1,1,1h4.4
			c1.5,0,2.6,1.2,2.6,2.6c0,0,0,0,0,0V55h-9v-8c0-0.6-0.4-1-1-1s-1,0.4-1,1v8h-4.7c-2.4,0-4.5,1.6-5.2,4h-12c-2.7,0-5,2.2-5.2,4.9
			V67c0,0.6,0.4,1,1,1s1-0.4,1-1v-3.1c0.2-1.6,1.6-2.9,3.2-2.9H55v9h-8c-0.6,0-1,0.4-1,1s0.4,1,1,1h8v5.7c0,2.9,2.4,5.3,5.3,5.3
			h17.4c2.9,0,5.3-2.4,5.3-5.3V60.3C83,57.5,80.8,55.2,78,55z M81,77.7c0,1.8-1.5,3.3-3.3,3.3c0,0,0,0,0,0H60.3
			c-1.8,0-3.3-1.5-3.3-3.3V60.3c0-1.8,1.5-3.3,3.3-3.3h17.4c1.8,0,3.3,1.5,3.3,3.3V77.7z"/>
		<path class="st1" d="M43,68c-0.6,0-1,0.4-1,1v3.9c0,0.9-0.2,3.1-1.8,3.1H28v-9h7c0.6,0,1-0.4,1-1s-0.4-1-1-1h-7v-4.7
			c0-2.8-2.2-5.2-5-5.3l0,0V42.6c0-2.8-1.5-4.6-4-4.6h-4c-0.6,0-1,0.4-1,1s0.4,1,1,1h4c1.3,0,2,0.9,2,2.6V55h-9v-8c0-0.6-0.4-1-1-1
			s-1,0.4-1,1v8H5.3C2.4,55,0,57.4,0,60.3v17.4C0,80.6,2.4,83,5.3,83h17.4c2.8,0,5.2-2.2,5.3-5h12.2c2.4,0,3.8-2,3.8-5.1V69
			C44,68.4,43.6,68,43,68z M26,77.7c0,1.8-1.5,3.3-3.3,3.3H5.3C3.5,81,2,79.5,2,77.7V60.3C2,58.5,3.5,57,5.3,57h17.4
			c1.8,0,3.3,1.5,3.3,3.3V77.7z"/>
		<circle class="st0" cx="68.6" cy="8.8" r="4.2"/>
		<path class="st0" d="M71.7,14h-6.1C63,14.1,61,16.2,61,18.8V24h15v-5.2C76.1,16.3,74.2,14.2,71.7,14z"/>
		<circle class="st0" cx="13.6" cy="8.8" r="4.2"/>
		<path class="st0" d="M21,18.8c0.1-2.5-1.8-4.6-4.4-4.8h-6.1C8,14.1,6,16.2,6,18.8V24h15V18.8z"/>
		<circle class="st0" cx="13.6" cy="63.8" r="4.2"/>
		<path class="st0" d="M16.6,69h-6.1C8,69.1,6,71.2,6,73.8V79h15v-5.2C21.1,71.3,19.2,69.2,16.6,69z"/>
		<circle class="st0" cx="69.6" cy="63.8" r="4.2"/>
		<path class="st0" d="M72.7,69h-6.1C64,69.1,62,71.2,62,73.8V79h15v-5.2C77.1,71.3,75.2,69.2,72.7,69z"/>
	</g>
</g>
</svg>
