<?xml version="1.0" encoding="utf-8"?>
<!-- Generator: Adobe Illustrator 22.0.1, SVG Export Plug-In . SVG Version: 6.00 Build 0)  -->
<svg version="1.1" id="Calque_1" xmlns="http://www.w3.org/2000/svg" xmlns:xlink="http://www.w3.org/1999/xlink" x="0px" y="0px"
	 viewBox="0 0 136.7 200" style="enable-background:new 0 0 136.7 200;" xml:space="preserve">
<style type="text/css">
	.st0{fill:#2393D8;}
	.st1{fill:#25D6B8;}
</style>
<title>Fichier 1</title>
<g id="Calque_2_1_">
	<g id="Calque_1-2">
		<rect x="90.7" y="155.7" class="st0" width="6.2" height="27.5"/>
		<rect x="39.8" y="155.7" class="st0" width="6.2" height="27.5"/>
		<rect x="34" y="152.6" class="st0" width="68.7" height="6.2"/>
		<rect x="34" y="166.3" class="st0" width="68.7" height="6.2"/>
		<rect x="34" y="180" class="st0" width="68.7" height="6.2"/>
		<rect x="53.1" y="193.8" class="st1" width="30.5" height="6.2"/>
		<path class="st0" d="M97,158.8H39.8v-3.1c0-13.4-5.7-26.2-15.6-35.2l-0.4-0.4c-0.5-0.4-0.9-0.8-1.4-1.2l-0.1-0.1
			C-5.6,93.4-7.6,50.2,17.8,22.3s68.7-29.9,96.6-4.5s29.9,68.7,4.5,96.6c-1.4,1.6-2.9,3-4.5,4.5c-0.7,0.6-1.2,1.1-1.8,1.6
			c-9.9,9-15.6,21.8-15.6,35.2V158.8z M45.9,152.6h44.9c0.8-14.1,7.1-27.3,17.6-36.7c0.6-0.6,1.3-1.2,1.9-1.7
			c25.3-23.2,27.1-62.5,3.9-87.8S51.8-0.7,26.4,22.5s-27.1,62.5-3.9,87.8c1.2,1.4,2.5,2.7,3.9,3.9c0.5,0.4,0.9,0.8,1.4,1.2l0.5,0.4
			C38.7,125.3,45.1,138.5,45.9,152.6L45.9,152.6z"/>
		<path class="st1" d="M68.3,122.7l-0.1-6.2h0.1c1.9,0,3.8-0.1,5.7-0.3l0.7,6.2C72.7,122.6,70.5,122.7,68.3,122.7z M61.7,122.3
			c-2.2-0.3-4.3-0.7-6.4-1.2l1.5-6c1.9,0.4,3.8,0.8,5.7,1L61.7,122.3z M81.2,121.1l-1.5-6.1c1.9-0.5,3.7-1,5.6-1.7l2.2,5.8
			C85.5,120,83.4,120.6,81.2,121.1z M49,119.1c-2.1-0.8-4.1-1.7-6-2.7l2.9-5.5c1.7,0.9,3.5,1.7,5.3,2.4L49,119.1z M93.5,116.5
			l-2.9-5.5c1.7-0.9,3.4-1.9,5-3l3.5,5.1C97.3,114.4,95.5,115.5,93.5,116.5L93.5,116.5z M37.4,113c-1.8-1.2-3.5-2.6-5.2-4l4.1-4.7
			c1.5,1.3,3,2.5,4.6,3.6L37.4,113z M104.3,109.1l-4.1-4.7c1.5-1.3,2.8-2.6,4.1-4.1l4.7,4.1C107.5,106.1,105.9,107.6,104.3,109.1
			L104.3,109.1z M27.7,104.3c-1.4-1.6-2.8-3.4-4-5.2l5.1-3.5c1.1,1.6,2.3,3.1,3.6,4.6L27.7,104.3z M113,99.3l-5.1-3.6
			c1.1-1.6,2.1-3.3,3-5l5.5,2.9C115.4,95.6,114.2,97.5,113,99.3L113,99.3z M20.2,93.6c-1-1.9-1.9-3.9-2.7-6l5.8-2.2
			c0.7,1.8,1.5,3.6,2.4,5.3L20.2,93.6z M119.1,87.8l-5.8-2.2c0.7-1.8,1.2-3.7,1.7-5.5l6,1.5C120.5,83.6,119.9,85.7,119.1,87.8z
			 M15.6,81.3c-0.5-2.1-0.9-4.3-1.2-6.5l6.2-0.7c0.2,1.9,0.6,3.8,1,5.7L15.6,81.3z M122.3,75.1l-6.2-0.8c0.2-1.9,0.4-3.9,0.4-5.8
			h6.2C122.7,70.7,122.5,72.9,122.3,75.1z M20.3,68.3H14c0-2.2,0.1-4.4,0.4-6.5l6.2,0.8C20.4,64.4,20.3,66.4,20.3,68.3L20.3,68.3z
			 M116.1,62.7c-0.2-1.9-0.6-3.8-1-5.7l6.1-1.5c0.5,2.1,0.9,4.3,1.1,6.5L116.1,62.7z M21.7,56.8l-6.1-1.5c0.5-2.1,1.2-4.2,1.9-6.3
			l5.8,2.2C22.7,53.1,22.1,54.9,21.7,56.8z M113.4,51.4c-0.7-1.8-1.5-3.6-2.4-5.3l5.5-2.9c1,1.9,1.9,3.9,2.7,6L113.4,51.4z M25.8,46
			l-5.5-2.9c1-1.9,2.2-3.8,3.4-5.6l5.1,3.5C27.7,42.6,26.7,44.3,25.8,46z M108,41.2c-1.1-1.6-2.3-3.1-3.6-4.6l4.7-4.1
			c1.4,1.6,2.8,3.4,4,5.2L108,41.2z M32.4,36.5l-4.7-4.1c1.5-1.6,3-3.2,4.6-4.6l4.1,4.7C35,33.6,33.7,35,32.4,36.5z M100.4,32.5
			c-1.4-1.3-3-2.5-4.6-3.6l3.6-5.1c1.8,1.3,3.5,2.6,5.1,4.1L100.4,32.5z M41.1,28.8l-3.6-5.1c1.8-1.2,3.7-2.4,5.6-3.4l2.9,5.5
			C44.3,26.7,42.6,27.7,41.1,28.8L41.1,28.8z M90.9,25.8c-1.7-0.9-3.5-1.7-5.3-2.4l2.2-5.8c2.1,0.8,4.1,1.7,6,2.7L90.9,25.8z
			 M51.3,23.4l-2.2-5.8c2-0.8,4.1-1.4,6.3-1.9l1.5,6C55,22.1,53.1,22.7,51.3,23.4z M80,21.7c-1.9-0.5-3.8-0.8-5.7-1.1l0.8-6.2
			c2.2,0.3,4.3,0.7,6.4,1.2L80,21.7z M62.6,20.6l-0.8-6.2c2.2-0.3,4.4-0.4,6.5-0.4l0.2,6.2h-0.3C66.4,20.2,64.5,20.4,62.6,20.6z"/>
		<path class="st0" d="M68.4,98.6c-16.7,0-30.3-13.6-30.3-30.3s13.6-30.3,30.3-30.3s30.3,13.6,30.3,30.3l0,0
			C98.6,85.1,85.1,98.6,68.4,98.6z M68.4,44.3c-13.3,0-24,10.7-24,24s10.7,24,24,24s24-10.7,24-24C92.3,55.1,81.6,44.3,68.4,44.3z"
			/>
		<path class="st1" d="M68.4,81.5c-7.3,0-13.2-5.9-13.2-13.2c0-7.3,5.9-13.2,13.2-13.2s13.2,5.9,13.2,13.2c0,0,0,0,0,0
			C81.5,75.6,75.6,81.5,68.4,81.5z M68.4,61.4c-3.8,0-6.9,3.2-6.9,7s3.2,6.9,7,6.9c3.8,0,6.9-3.1,6.9-6.9
			C75.3,64.5,72.2,61.4,68.4,61.4z"/>
		<rect x="65.2" y="30.3" class="st0" width="6.2" height="10.9"/>
		
			<rect x="48.9" y="34.7" transform="matrix(0.8661 -0.4998 0.4998 0.8661 -13.0782 31.3846)" class="st0" width="6.2" height="10.9"/>
		
			<rect x="37" y="46.6" transform="matrix(0.5005 -0.8658 0.8658 0.5005 -25.0292 60.7389)" class="st0" width="6.2" height="10.9"/>
		<rect x="30.3" y="65.2" class="st0" width="10.9" height="6.2"/>
		
			<rect x="34.7" y="81.5" transform="matrix(0.8658 -0.5005 0.5005 0.8658 -36.9779 31.4369)" class="st0" width="10.9" height="6.2"/>
		
			<rect x="46.6" y="93.5" transform="matrix(0.5002 -0.8659 0.8659 0.5002 -57.6321 93.3709)" class="st0" width="10.9" height="6.2"/>
		<rect x="65.2" y="95.5" class="st0" width="6.2" height="10.9"/>
		
			<rect x="81.5" y="91.2" transform="matrix(0.8657 -0.5006 0.5006 0.8657 -36.9867 55.3574)" class="st0" width="6.2" height="10.9"/>
		
			<rect x="93.5" y="79.2" transform="matrix(0.5002 -0.8659 0.8659 0.5002 -25.0289 125.9777)" class="st0" width="6.2" height="10.9"/>
		<rect x="95.5" y="65.2" class="st0" width="10.9" height="6.2"/>
		
			<rect x="91.2" y="48.9" transform="matrix(0.8659 -0.5003 0.5003 0.8659 -13.0827 55.3142)" class="st0" width="10.9" height="6.2"/>
		<rect x="79.2" y="37" transform="matrix(0.5003 -0.8659 0.8659 0.5003 7.5826 93.3421)" class="st0" width="10.9" height="6.2"/>
	</g>
</g>
</svg>
