<?xml version="1.0" encoding="utf-8"?>
<!-- Generator: Adobe Illustrator 22.1.0, SVG Export Plug-In . SVG Version: 6.00 Build 0)  -->
<svg version="1.1" id="Calque_1" xmlns="http://www.w3.org/2000/svg" xmlns:xlink="http://www.w3.org/1999/xlink" x="0px" y="0px"
	 viewBox="0 0 32 32" style="enable-background:new 0 0 32 32;" xml:space="preserve">
<style type="text/css">
	.st0{fill:#FF0066;}
	.st1{fill:#FFFF99;}
	.st2{fill:#3366CC;}
	.st3{fill:#FFFFFF;}
	.st4{fill:#CCCCCC;}
</style>
<g id="Calque_2_1_">
	<g>
		<rect x="1.7" y="1.8" class="st0" width="15.5" height="11.5"/>
		<polygon class="st1" points="30.2,13.4 22.8,13.3 22.8,1.8 30.2,1.8 		"/>
		<rect x="15.7" y="18.7" class="st2" width="14.5" height="11.5"/>
		<rect x="1.7" y="18.7" class="st3" width="8.5" height="11.5"/>
	</g>
</g>
<g id="Calque_1_1_">
	<title>Fichier 1</title>
	<g id="Calque_2_2_">
		<g id="Calque_1-2">
			<path class="st4" d="M14,19c0-1.1,0.9-2,2-2h14c1.1,0,2,0.9,2,2v11c0,1.1-0.9,2-2,2H16c-1.1,0-2-0.9-2-2V19z M16,19.5v10
				c0,0.3,0.2,0.5,0.5,0.5h13c0.3,0,0.5-0.2,0.5-0.5v-10c0-0.3-0.2-0.5-0.5-0.5h-13C16.2,19,16,19.2,16,19.5L16,19.5z M0,19
				c0-1.1,0.9-2,2-2h8c1.1,0,2,0.9,2,2v11c0,1.1-0.9,2-2,2H2c-1.1,0-2-0.9-2-2V19z M2,19.5v10C2,29.8,2.2,30,2.5,30h7
				c0.3,0,0.5-0.2,0.5-0.5v-10c0-0.3-0.2-0.5-0.5-0.5h-7C2.2,19,2,19.2,2,19.5L2,19.5z M21,2c0-1.1,0.9-2,2-2h7c1.1,0,2,0.9,2,2v11
				c0,1.1-0.9,2-2,2h-7c-1.1,0-2-0.9-2-2V2z M23,2.5v10c0,0.3,0.2,0.5,0.5,0.5h6c0.3,0,0.5-0.2,0.5-0.5v-10C30,2.2,29.8,2,29.5,2h-6
				C23.2,2,23,2.2,23,2.5L23,2.5z M0,2c0-1.1,0.9-2,2-2h15c1.1,0,2,0.9,2,2v11c0,1.1-0.9,2-2,2H2c-1.1,0-2-0.9-2-2V2z M2,2.5v10
				C2,12.8,2.2,13,2.5,13h14c0.3,0,0.5-0.2,0.5-0.5v-10C17,2.2,16.8,2,16.5,2h-14C2.2,2,2,2.2,2,2.5z"/>
		</g>
	</g>
</g>
</svg>
