<?xml version="1.0" encoding="utf-8"?>
<!-- Generator: Adobe Illustrator 22.0.1, SVG Export Plug-In . SVG Version: 6.00 Build 0)  -->
<svg version="1.1" id="Calque_1" xmlns="http://www.w3.org/2000/svg" xmlns:xlink="http://www.w3.org/1999/xlink" x="0px" y="0px"
	 viewBox="0 0 44 42" style="enable-background:new 0 0 44 42;" xml:space="preserve">
<style type="text/css">
	.st0{fill:#25D6B8;}
	.st1{fill:#2393D8;}
</style>
<title>Fichier 1</title>
<g id="Calque_2_1_">
	<g id="Calque_1-2">
		<path class="st0" d="M33.5,5C33.8,5,34,4.8,34,4.6c0,0,0,0,0-0.1v-3C34,1.2,33.8,1,33.5,1S33,1.2,33,1.5v3C33,4.8,33.2,5,33.5,5
			C33.5,5,33.5,5,33.5,5z"/>
		<path class="st0" d="M38.5,39c-0.3,0-0.5,0.2-0.5,0.4c0,0,0,0,0,0.1v2c0,0.3,0.2,0.5,0.5,0.5s0.5-0.2,0.5-0.5v-2
			C39,39.2,38.8,39,38.5,39C38.5,39,38.5,39,38.5,39z"/>
		<path class="st0" d="M38.5,5C38.8,5,39,4.8,39,4.6c0,0,0,0,0-0.1v-2C39,2.2,38.8,2,38.5,2S38,2.2,38,2.5v2C38,4.8,38.2,5,38.5,5
			C38.5,5,38.5,5,38.5,5z"/>
		<path class="st0" d="M42.5,29c-0.3,0-0.5,0.2-0.5,0.4c0,0,0,0,0,0.1v5c0,0.3,0.2,0.5,0.5,0.5s0.5-0.2,0.5-0.5v-5
			C43,29.2,42.8,29,42.5,29C42.5,29,42.5,29,42.5,29z"/>
		<path class="st0" d="M42,10.5v3c0,0.3,0.2,0.5,0.5,0.5s0.5-0.2,0.5-0.5v-3c0-0.3-0.2-0.5-0.5-0.5S42,10.2,42,10.5z"/>
		<path class="st1" d="M11.5,20h6c0.3,0,0.5-0.2,0.5-0.5S17.8,19,17.5,19h-6c-0.3,0-0.5,0.2-0.5,0.5S11.2,20,11.5,20z"/>
		<path class="st1" d="M17,25.5c0,0.3,0.2,0.5,0.4,0.5c0,0,0,0,0.1,0h6c0.3,0,0.5-0.2,0.5-0.5S23.8,25,23.5,25h-6
			C17.2,25,17,25.2,17,25.5C17,25.5,17,25.5,17,25.5z"/>
		<path class="st1" d="M17.5,31h-6c-0.3,0-0.5,0.2-0.5,0.5s0.2,0.5,0.5,0.5h6c0.3,0,0.5-0.2,0.5-0.5S17.8,31,17.5,31z"/>
		<path class="st1" d="M11.5,26h4c0.3,0,0.5-0.2,0.5-0.5S15.8,25,15.5,25h-4c-0.3,0-0.5,0.2-0.5,0.5S11.2,26,11.5,26z"/>
		<path class="st1" d="M11.5,30h4c0.3,0,0.5-0.2,0.5-0.5S15.8,29,15.5,29h-4c-0.3,0-0.5,0.2-0.5,0.5S11.2,30,11.5,30z"/>
		<path class="st1" d="M11.5,22h7c0.3,0,0.5-0.2,0.5-0.5S18.8,21,18.5,21h-7c-0.3,0-0.5,0.2-0.5,0.5S11.2,22,11.5,22z"/>
		<path class="st1" d="M15,23.5c0,0.3,0.2,0.5,0.4,0.5c0,0,0,0,0.1,0h7c0.3,0,0.5-0.2,0.5-0.5S22.8,23,22.5,23h-7
			C15.2,23,15,23.2,15,23.5C15,23.5,15,23.5,15,23.5z"/>
		<path class="st1" d="M11.5,28h7c0.3,0,0.5-0.2,0.5-0.5S18.8,27,18.5,27h-7c-0.3,0-0.5,0.2-0.5,0.5S11.2,28,11.5,28z"/>
		<path class="st1" d="M19,19.5c0,0.3,0.2,0.5,0.4,0.5c0,0,0,0,0.1,0h3c0.3,0,0.5-0.2,0.5-0.5S22.8,19,22.5,19h-3
			C19.2,19,19,19.2,19,19.5C19,19.5,19,19.5,19,19.5z"/>
		<path class="st1" d="M16.5,17h5c0.3,0,0.5-0.2,0.5-0.5S21.8,16,21.5,16h-5c-0.3,0-0.5,0.2-0.5,0.5S16.2,17,16.5,17z"/>
		<path class="st1" d="M11.5,24h2c0.3,0,0.5-0.2,0.5-0.5S13.8,23,13.5,23h-2c-0.3,0-0.5,0.2-0.5,0.5S11.2,24,11.5,24z"/>
		<path class="st1" d="M22.5,29h-2c-0.3,0-0.5,0.2-0.5,0.5s0.2,0.5,0.5,0.5h2c0.3,0,0.5-0.2,0.5-0.5S22.8,29,22.5,29z"/>
		<path class="st1" d="M24.5,28h1c0.3,0,0.5-0.2,0.5-0.5S25.8,27,25.5,27h-1c-0.3,0-0.5,0.2-0.5,0.5S24.2,28,24.5,28z"/>
		<path class="st1" d="M16.5,36h-1c-0.3,0-0.5,0.2-0.5,0.5s0.2,0.5,0.5,0.5h1c0.3,0,0.5-0.2,0.5-0.5S16.8,36,16.5,36z"/>
		<path class="st1" d="M18.5,29h-1c-0.3,0-0.5,0.2-0.5,0.5s0.2,0.5,0.5,0.5h1c0.3,0,0.5-0.2,0.5-0.5S18.8,29,18.5,29z"/>
		<path class="st1" d="M13.5,36h-2c-0.3,0-0.5,0.2-0.5,0.5s0.2,0.5,0.5,0.5h2c0.3,0,0.5-0.2,0.5-0.5S13.8,36,13.5,36z"/>
		<path class="st1" d="M22.5,27h-2c-0.3,0-0.5,0.2-0.5,0.5s0.2,0.5,0.5,0.5h2c0.3,0,0.5-0.2,0.5-0.5S22.8,27,22.5,27z"/>
		<path class="st1" d="M24,30c-1,0-1.9,0.4-2.6,1h-1.9c-0.3,0-0.5,0.2-0.5,0.5s0.2,0.5,0.5,0.5h1.1c-0.3,0.6-0.6,1.3-0.6,2
			c0,2.2,1.8,4,4,4s4-1.8,4-4S26.2,30,24,30z M24,36c-1.1,0-2-0.9-2-2s0.9-2,2-2s2,0.9,2,2S25.1,36,24,36z"/>
		<circle class="st0" cx="24" cy="34" r="1"/>
		<path class="st1" d="M40,14.5v-4.2c0-0.4,0.2-0.8,0.4-1.1l1.8-1.8C42.7,7,43,6.4,43,5.7V3.9c0.6-0.2,1-0.8,1-1.4
			C44,1.7,43.3,1,42.5,1S41,1.7,41,2.5c0,0.6,0.4,1.2,1,1.4v1.8c0,0.4-0.2,0.8-0.4,1.1l-1.8,1.8C39.3,9,39,9.6,39,10.3v3.6
			c-0.6-0.3-1.3-0.6-2-0.7V8.9c0.6-0.2,1-0.8,1-1.4C38,6.7,37.3,6,36.5,6S35,6.7,35,7.5c0,0.6,0.4,1.2,1,1.4v4.2
			c-0.3,0-0.7-0.1-1-0.1c-1,0-2,0.2-3,0.5V7c0-1.7-1.3-3-3-3h-2V3c0-1.7-1.3-3-3-3s-3,1.3-3,3v1H3C1.3,4,0,5.3,0,7v32
			c0,1.7,1.3,3,3,3h26c1.7,0,3-1.3,3-3v-8.5c1,0.3,2,0.5,3,0.5v6.1c-0.6,0.2-1,0.8-1,1.4c0,0.8,0.7,1.5,1.5,1.5s1.5-0.7,1.5-1.5
			c0-0.6-0.4-1.2-1-1.4v-6.2c0.7-0.1,1.4-0.2,2-0.5v2.2c0,0.7,0.3,1.3,0.7,1.8l1.8,1.8c0.3,0.3,0.4,0.7,0.4,1.1v1.8
			c-0.6,0.2-1,0.8-1,1.4c0,0.8,0.7,1.5,1.5,1.5s1.5-0.7,1.5-1.5c0-0.6-0.4-1.2-1-1.4v-1.8c0-0.7-0.3-1.3-0.7-1.8l-1.8-1.8
			C39.1,33.4,39,33,39,32.6V30c4.4-2.2,6.2-7.6,4-12.1C42.3,16.5,41.3,15.4,40,14.5z M42.5,2C42.8,2,43,2.2,43,2.4c0,0,0,0,0,0.1
			C43,2.8,42.8,3,42.5,3S42,2.8,42,2.5C42,2.2,42.2,2,42.5,2C42.5,2,42.5,2,42.5,2z M41.5,40c0.3,0,0.5,0.2,0.5,0.5S41.8,41,41.5,41
			S41,40.8,41,40.5C41,40.2,41.2,40,41.5,40C41.5,40,41.5,40,41.5,40z M36.5,7C36.8,7,37,7.2,37,7.5S36.8,8,36.5,8S36,7.8,36,7.5
			C36,7.2,36.2,7,36.5,7C36.5,7,36.5,7,36.5,7z M23,3c0-0.6,0.4-1,1-1s1,0.4,1,1v1h-2V3z M3,40c-0.5,0-1-0.4-1-0.9c0,0,0-0.1,0-0.1
			V7c0-0.5,0.4-1,0.9-1C2.9,6,3,6,3,6h0.2C3.1,6.3,3,6.7,3,7v32c0,0.3,0.1,0.7,0.2,1H3z M6.2,40H6c-0.5,0-1-0.4-1-0.9
			c0,0,0-0.1,0-0.1V7c0-0.5,0.4-1,0.9-1C5.9,6,6,6,6,6h6.6l-5.7,5.7C6.3,12.2,6,13,6,13.8V39C6,39.3,6.1,39.7,6.2,40z M14,7.4V11
			c0,0.5-0.4,1-0.9,1c0,0-0.1,0-0.1,0H9.4L14,7.4z M30,39c0,0.5-0.4,1-0.9,1c0,0-0.1,0-0.1,0H9c-0.5,0-1-0.4-1-0.9c0,0,0-0.1,0-0.1
			V15c0-0.5,0.4-1,0.9-1c0,0,0.1,0,0.1,0h4c1.7,0,3-1.3,3-3V7c0-0.5,0.4-1,0.9-1c0,0,0.1,0,0.1,0h8v6c0,0.6-0.4,1-1,1s-1-0.4-1-1V9
			c0-0.6-0.4-1-1-1s-1,0.4-1,1v3c0,1.7,1.3,3,3,3s3-1.3,3-3V6h2c0.5,0,1,0.4,1,0.9c0,0,0,0.1,0,0.1v7.5c-2.2,1.5-3.6,3.9-3.9,6.5
			h-5.6c-0.3,0-0.5,0.2-0.5,0.5s0.2,0.5,0.5,0.5H26c0,0.3,0,0.7,0.1,1h-1.6c-0.3,0-0.5,0.2-0.5,0.5s0.2,0.5,0.5,0.5h1.7
			c0.5,2.3,1.9,4.2,3.8,5.5V39z M35.5,39c-0.3,0-0.5-0.2-0.5-0.5s0.2-0.5,0.5-0.5s0.5,0.2,0.5,0.5C36,38.8,35.8,39,35.5,39
			C35.5,39,35.5,39,35.5,39z M35,29c-3.9,0-7-3.1-7-7s3.1-7,7-7s7,3.1,7,7S38.9,29,35,29z"/>
		<path class="st0" d="M38,21v-2c0-1.7-1.3-3-3-3s-3,1.3-3,3v2c-0.5,0-1,0.4-1,0.9c0,0,0,0.1,0,0.1v4c0,0.5,0.4,1,0.9,1
			c0,0,0.1,0,0.1,0h6c0.5,0,1-0.4,1-0.9c0,0,0-0.1,0-0.1v-4c0-0.5-0.4-1-0.9-1C38.1,21,38,21,38,21z M35,25c-0.6,0-1-0.4-1-1
			s0.4-1,1-1s1,0.4,1,1c0,0.5-0.4,1-0.9,1C35.1,25,35,25,35,25z M36,21h-2v-2c0-0.6,0.4-1,1-1s1,0.4,1,1V21z"/>
	</g>
</g>
</svg>
